<?xml version="1.0" standalone="no"?>
<!DOCTYPE svg PUBLIC "-//W3C//DTD SVG 20010904//EN"
 "http://www.w3.org/TR/2001/REC-SVG-20010904/DTD/svg10.dtd">
<svg version="1.0" xmlns="http://www.w3.org/2000/svg"
 width="260.000000pt" height="260.000000pt" viewBox="0 0 260.000000 260.000000"
 preserveAspectRatio="xMidYMid meet">
<metadata>
Created by potrace 1.14, written by Peter Selinger 2001-2017
</metadata>
<g transform="translate(0.000000,260.000000) scale(0.100000,-0.100000)"
fill="#000000" stroke="none">
<path d="M1169 2586 c-2 -2 -24 -7 -49 -10 -140 -19 -247 -51 -380 -114 -358
-170 -615 -493 -708 -887 -22 -95 -26 -133 -26 -280 0 -191 20 -312 77 -460
44 -117 129 -269 189 -341 215 -258 443 -402 750 -473 123 -29 419 -29 550 -1
151 32 257 74 392 154 93 55 210 148 274 219 26 27 55 59 64 69 38 39 127 178
166 258 87 181 124 336 127 540 4 200 -22 347 -90 516 -80 199 -222 390 -390
527 -146 119 -355 219 -535 256 -30 6 -66 14 -80 17 -30 7 -324 16 -331 10z"/>
</g>
</svg>
